<svg version="1" xmlns="http://www.w3.org/2000/svg" width="933.333" height="933.333" viewBox="0 0 700.000000 700.000000"><path d="M333 .6c-25.2 1.7-46.2 4.8-67.2 10-48.8 12-94.8 34.8-135.3 67-14.1 11.3-41.6 38.8-52.9 52.9-64.1 80.4-89.7 181.7-71.5 282.9C31.8 556.1 146.9 670 290 694.4c23 3.9 35.9 5 60 5 39.9 0 75.5-5.8 112-18.2 114.6-38.9 201.4-134.5 228.4-251.5 22.9-99 2.5-201.4-56.2-283.4C576.4 65.6 487.5 13.5 388.5 2.5 375.3 1 343-.1 333 .6zm180.1 205.9c4.3 2.3 6.9 7.1 6.9 13 .1 7.6-44 287.2-46.1 293.1-2.7 7.1-7.9 12.7-15.1 16.3-5 2.5-7.3 3.1-12.8 3.1-11.4 0-3.7 4.6-104-61.9-20.3-13.5-38.2-26-40.3-28.3-6.8-7.5-8.5-19.5-3.8-28.5 1.8-3.6 17.8-19.7 65.6-66.4 53.2-51.8 55.8-54.5 55.1-56.7-1.8-5.7 4.6-9.6-131.6 80.3-19 12.5-36.7 24-39.5 25.5-12 6.7-29.3 9.4-42.4 6.6-12.2-2.6-74.3-23.5-76.9-25.9-7.1-6.5-6.7-18.4.7-23.6 8.9-6.3 209.4-92.1 276.6-118.3 37.2-14.6 50.4-19 73-24.8 20.6-5.3 29.3-6.2 34.6-3.5z"/></svg>